<?xml version="1.0" encoding="UTF-8"?><svg id="Capa_2" xmlns="http://www.w3.org/2000/svg" xmlns:xlink="http://www.w3.org/1999/xlink" viewBox="0 0 475.65 38.01"><defs><style>.cls-1{fill:#fafafa;}.cls-2{fill:url(#Degradado_sin_nombre_5);}</style><linearGradient id="Degradado_sin_nombre_5" x1="10.31" y1="38.01" x2="10.31" y2="0" gradientUnits="userSpaceOnUse"><stop offset="0" stop-color="#f15a24"/><stop offset="1" stop-color="#fbb03b"/></linearGradient></defs><g id="Capa_1-2"><g><path class="cls-1" d="M42.19,23.28c0-1.32,.38-2.48,1.14-3.47,.76-.99,1.81-1.76,3.16-2.3,1.35-.54,2.89-.81,4.62-.81,.93,0,1.88,.07,2.84,.22,.96,.15,1.83,.35,2.6,.62v-1.31c0-1.44-.44-2.57-1.32-3.39-.88-.81-2.15-1.22-3.8-1.22-1.17,0-2.28,.2-3.32,.6s-2.15,1-3.32,1.8l-1.44-3c1.33-.91,2.71-1.59,4.12-2.06,1.41-.47,2.89-.7,4.44-.7,2.8,0,5,.73,6.6,2.2s2.4,3.54,2.4,6.23v7.71c0,.5,.09,.86,.28,1.07,.19,.21,.49,.33,.92,.36v3.52c-.4,.08-.75,.13-1.06,.16-.31,.03-.57,.05-.78,.08-.96-.03-1.68-.27-2.16-.72-.48-.45-.76-.99-.84-1.6l-.12-1.2c-.88,1.17-2.03,2.08-3.46,2.72-1.43,.64-2.86,.96-4.3,.96s-2.63-.28-3.72-.85c-1.09-.57-1.95-1.34-2.56-2.32-.61-.98-.92-2.07-.92-3.29Zm13.32,1.29c.29-.37,.54-.72,.74-1.06,.2-.34,.3-.66,.3-.94v-2.32c-.75-.29-1.53-.51-2.36-.65-.83-.14-1.63-.22-2.4-.22-1.63,0-2.94,.31-3.94,.94s-1.5,1.5-1.5,2.6c0,.6,.17,1.17,.5,1.71s.81,.98,1.44,1.34c.63,.35,1.39,.53,2.3,.53,.99,0,1.92-.19,2.8-.57,.88-.38,1.59-.83,2.12-1.36Z"/><path class="cls-1" d="M78.15,29.74c-1.68,0-3.16-.4-4.44-1.19-1.28-.79-2.29-1.81-3.04-3.05v12.36h-4.4V8.58h3.88v3.76c.8-1.24,1.84-2.23,3.12-2.97,1.28-.74,2.71-1.11,4.28-1.11,1.44,0,2.76,.28,3.96,.85,1.2,.57,2.24,1.35,3.12,2.36,.88,1,1.57,2.15,2.06,3.43,.49,1.28,.74,2.64,.74,4.06,0,1.98-.39,3.8-1.18,5.45-.79,1.65-1.88,2.95-3.28,3.9-1.4,.95-3.01,1.43-4.82,1.43Zm-1.44-3.76c.96,0,1.82-.2,2.58-.59,.76-.39,1.41-.92,1.94-1.58,.53-.66,.95-1.4,1.24-2.23s.44-1.7,.44-2.62c0-.97-.16-1.87-.48-2.7-.32-.83-.78-1.56-1.38-2.19-.6-.63-1.29-1.13-2.08-1.5s-1.63-.55-2.54-.55c-.59,0-1.18,.1-1.78,.31-.6,.21-1.18,.5-1.74,.86-.56,.37-1.04,.79-1.44,1.28-.4,.48-.67,1.03-.8,1.63v5.39c.37,.84,.87,1.59,1.48,2.26,.61,.67,1.32,1.21,2.12,1.61,.8,.41,1.61,.61,2.44,.61Z"/><path class="cls-1" d="M103.11,12.22c-1.68,.03-3.18,.41-4.5,1.16-1.32,.75-2.26,1.8-2.82,3.16v12.8h-4.4V8.58h4.04v4.48c.75-1.41,1.71-2.55,2.88-3.42,1.17-.87,2.4-1.34,3.68-1.42h.7c.17,0,.31,.01,.42,.04v3.96Z"/><path class="cls-1" d="M115.47,29.74c-1.65,0-3.13-.28-4.44-.85-1.31-.57-2.44-1.35-3.4-2.34-.96-.99-1.7-2.13-2.22-3.41s-.78-2.64-.78-4.07c0-1.98,.45-3.78,1.36-5.42,.91-1.64,2.18-2.94,3.82-3.92,1.64-.98,3.53-1.46,5.66-1.46s4.11,.5,5.7,1.49c1.59,.99,2.82,2.29,3.7,3.9,.88,1.61,1.32,3.34,1.32,5.19,0,.32-.01,.61-.04,.89-.03,.28-.05,.5-.08,.65h-16.8c.13,1.24,.49,2.31,1.08,3.22,.59,.91,1.35,1.62,2.28,2.13,.93,.51,1.92,.77,2.96,.77,1.2,0,2.33-.29,3.38-.88,1.05-.59,1.77-1.36,2.14-2.32l3.76,1.08c-.45,1.01-1.15,1.93-2.08,2.74-.93,.81-2.02,1.45-3.26,1.92-1.24,.47-2.59,.7-4.06,.7Zm-6.28-12.24h12.64c-.11-1.2-.45-2.25-1.02-3.14-.57-.89-1.33-1.59-2.26-2.1-.93-.51-1.95-.76-3.04-.76s-2.14,.25-3.06,.76c-.92,.51-1.67,1.21-2.26,2.1-.59,.89-.92,1.93-1,3.14Z"/><path class="cls-1" d="M148.55,29.34h-4.36v-11.58c0-1.95-.32-3.37-.96-4.25s-1.57-1.33-2.8-1.33c-.85,0-1.7,.22-2.54,.65-.84,.43-1.59,1-2.24,1.71-.65,.71-1.14,1.53-1.46,2.48v12.32h-4.4V8.58h4v4.16c.53-.92,1.23-1.72,2.08-2.38,.85-.66,1.83-1.17,2.92-1.54,1.09-.37,2.25-.56,3.48-.56s2.29,.23,3.12,.67c.83,.45,1.47,1.06,1.92,1.84,.45,.78,.77,1.68,.96,2.69,.19,1.02,.28,2.09,.28,3.23v12.64Z"/><path class="cls-1" d="M152.35,19c0-1.98,.41-3.78,1.22-5.41,.81-1.62,1.93-2.92,3.34-3.88,1.41-.96,3.04-1.45,4.88-1.45,1.63,0,3.09,.41,4.38,1.24,1.29,.83,2.29,1.84,2.98,3.04V.14h4.4V24.38c0,.48,.09,.83,.28,1.06s.49,.35,.92,.38v3.52c-.8,.13-1.44,.21-1.92,.24-.83,0-1.52-.25-2.08-.74-.56-.49-.87-1.07-.92-1.74l-.04-1.52c-.83,1.31-1.91,2.33-3.26,3.06-1.35,.73-2.75,1.1-4.22,1.1s-2.77-.28-3.98-.85c-1.21-.57-2.27-1.35-3.16-2.34-.89-.99-1.59-2.13-2.08-3.41-.49-1.28-.74-2.66-.74-4.14Zm16.8,2.88v-5.4c-.29-.84-.77-1.59-1.42-2.25-.65-.66-1.39-1.19-2.2-1.6-.81-.41-1.63-.61-2.46-.61-.91,0-1.74,.2-2.5,.59-.76,.39-1.41,.91-1.96,1.56-.55,.64-.97,1.39-1.26,2.25-.29,.85-.44,1.74-.44,2.66s.16,1.8,.48,2.64c.32,.84,.78,1.58,1.38,2.23,.6,.64,1.29,1.14,2.08,1.5s1.65,.53,2.58,.53c.59,0,1.18-.1,1.78-.3,.6-.2,1.17-.48,1.7-.85,.53-.37,1-.81,1.4-1.32,.4-.51,.68-1.06,.84-1.64Z"/><path class="cls-1" d="M188.63,29.74c-1.65,0-3.13-.28-4.44-.85-1.31-.57-2.44-1.35-3.4-2.34-.96-.99-1.7-2.13-2.22-3.41s-.78-2.64-.78-4.07c0-1.98,.45-3.78,1.36-5.42,.91-1.64,2.18-2.94,3.82-3.92,1.64-.98,3.53-1.46,5.66-1.46s4.11,.5,5.7,1.49c1.59,.99,2.82,2.29,3.7,3.9,.88,1.61,1.32,3.34,1.32,5.19,0,.32-.01,.61-.04,.89-.03,.28-.05,.5-.08,.65h-16.8c.13,1.24,.49,2.31,1.08,3.22,.59,.91,1.35,1.62,2.28,2.13,.93,.51,1.92,.77,2.96,.77,1.2,0,2.33-.29,3.38-.88,1.05-.59,1.77-1.36,2.14-2.32l3.76,1.08c-.45,1.01-1.15,1.93-2.08,2.74-.93,.81-2.02,1.45-3.26,1.92-1.24,.47-2.59,.7-4.06,.7Zm-6.28-12.24h12.64c-.11-1.2-.45-2.25-1.02-3.14-.57-.89-1.33-1.59-2.26-2.1-.93-.51-1.95-.76-3.04-.76s-2.14,.25-3.06,.76c-.92,.51-1.67,1.21-2.26,2.1-.59,.89-.92,1.93-1,3.14Z"/><path class="cls-1" d="M214.67,12.22c-1.68,.03-3.18,.41-4.5,1.16-1.32,.75-2.26,1.8-2.82,3.16v12.8h-4.4V8.58h4.04v4.48c.75-1.41,1.71-2.55,2.88-3.42,1.17-.87,2.4-1.34,3.68-1.42h.7c.17,0,.31,.01,.42,.04v3.96Z"/><path class="cls-1" d="M238.79,29.74c-1.68,0-3.16-.4-4.44-1.19-1.28-.79-2.29-1.81-3.04-3.05v12.36h-4.4V8.58h3.88v3.76c.8-1.24,1.84-2.23,3.12-2.97,1.28-.74,2.71-1.11,4.28-1.11,1.44,0,2.76,.28,3.96,.85,1.2,.57,2.24,1.35,3.12,2.36,.88,1,1.57,2.15,2.06,3.43,.49,1.28,.74,2.64,.74,4.06,0,1.98-.39,3.8-1.18,5.45-.79,1.65-1.88,2.95-3.28,3.9-1.4,.95-3.01,1.43-4.82,1.43Zm-1.44-3.76c.96,0,1.82-.2,2.58-.59,.76-.39,1.41-.92,1.94-1.58,.53-.66,.95-1.4,1.24-2.23s.44-1.7,.44-2.62c0-.97-.16-1.87-.48-2.7-.32-.83-.78-1.56-1.38-2.19-.6-.63-1.29-1.13-2.08-1.5s-1.63-.55-2.54-.55c-.59,0-1.18,.1-1.78,.31-.6,.21-1.18,.5-1.74,.86-.56,.37-1.04,.79-1.44,1.28-.4,.48-.67,1.03-.8,1.63v5.39c.37,.84,.87,1.59,1.48,2.26,.61,.67,1.32,1.21,2.12,1.61,.8,.41,1.61,.61,2.44,.61Z"/><path class="cls-1" d="M250.51,23.28c0-1.32,.38-2.48,1.14-3.47,.76-.99,1.81-1.76,3.16-2.3,1.35-.54,2.89-.81,4.62-.81,.93,0,1.88,.07,2.84,.22,.96,.15,1.83,.35,2.6,.62v-1.31c0-1.44-.44-2.57-1.32-3.39-.88-.81-2.15-1.22-3.8-1.22-1.17,0-2.28,.2-3.32,.6s-2.15,1-3.32,1.8l-1.44-3c1.33-.91,2.71-1.59,4.12-2.06,1.41-.47,2.89-.7,4.44-.7,2.8,0,5,.73,6.6,2.2s2.4,3.54,2.4,6.23v7.71c0,.5,.09,.86,.28,1.07,.19,.21,.49,.33,.92,.36v3.52c-.4,.08-.75,.13-1.06,.16-.31,.03-.57,.05-.78,.08-.96-.03-1.68-.27-2.16-.72-.48-.45-.76-.99-.84-1.6l-.12-1.2c-.88,1.17-2.03,2.08-3.46,2.72-1.43,.64-2.86,.96-4.3,.96s-2.63-.28-3.72-.85c-1.09-.57-1.95-1.34-2.56-2.32-.61-.98-.92-2.07-.92-3.29Zm13.32,1.29c.29-.37,.54-.72,.74-1.06,.2-.34,.3-.66,.3-.94v-2.32c-.75-.29-1.53-.51-2.36-.65-.83-.14-1.63-.22-2.4-.22-1.63,0-2.94,.31-3.94,.94s-1.5,1.5-1.5,2.6c0,.6,.17,1.17,.5,1.71s.81,.98,1.44,1.34c.63,.35,1.39,.53,2.3,.53,.99,0,1.92-.19,2.8-.57,.88-.38,1.59-.83,2.12-1.36Z"/><path class="cls-1" d="M286.31,12.22c-1.68,.03-3.18,.41-4.5,1.16-1.32,.75-2.26,1.8-2.82,3.16v12.8h-4.4V8.58h4.04v4.48c.75-1.41,1.71-2.55,2.88-3.42,1.17-.87,2.4-1.34,3.68-1.42h.7c.17,0,.31,.01,.42,.04v3.96Z"/><path class="cls-1" d="M287.99,23.28c0-1.32,.38-2.48,1.14-3.47,.76-.99,1.81-1.76,3.16-2.3,1.35-.54,2.89-.81,4.62-.81,.93,0,1.88,.07,2.84,.22,.96,.15,1.83,.35,2.6,.62v-1.31c0-1.44-.44-2.57-1.32-3.39-.88-.81-2.15-1.22-3.8-1.22-1.17,0-2.28,.2-3.32,.6s-2.15,1-3.32,1.8l-1.44-3c1.33-.91,2.71-1.59,4.12-2.06,1.41-.47,2.89-.7,4.44-.7,2.8,0,5,.73,6.6,2.2s2.4,3.54,2.4,6.23v7.71c0,.5,.09,.86,.28,1.07,.19,.21,.49,.33,.92,.36v3.52c-.4,.08-.75,.13-1.06,.16-.31,.03-.57,.05-.78,.08-.96-.03-1.68-.27-2.16-.72-.48-.45-.76-.99-.84-1.6l-.12-1.2c-.88,1.17-2.03,2.08-3.46,2.72-1.43,.64-2.86,.96-4.3,.96s-2.63-.28-3.72-.85c-1.09-.57-1.95-1.34-2.56-2.32-.61-.98-.92-2.07-.92-3.29Zm13.32,1.29c.29-.37,.54-.72,.74-1.06,.2-.34,.3-.66,.3-.94v-2.32c-.75-.29-1.53-.51-2.36-.65-.83-.14-1.63-.22-2.4-.22-1.63,0-2.94,.31-3.94,.94s-1.5,1.5-1.5,2.6c0,.6,.17,1.17,.5,1.71s.81,.98,1.44,1.34c.63,.35,1.39,.53,2.3,.53,.99,0,1.92-.19,2.8-.57,.88-.38,1.59-.83,2.12-1.36Z"/><path class="cls-1" d="M334.61,29.84c-2.23,0-4.22-.36-5.95-1.09-1.73-.72-3.21-1.71-4.43-2.96s-2.14-2.68-2.77-4.29c-.63-1.61-.95-3.32-.95-5.13,0-2.4,.56-4.61,1.67-6.64,1.12-2.02,2.73-3.65,4.83-4.89,2.1-1.23,4.62-1.85,7.55-1.85s5.59,.63,7.67,1.9c2.08,1.27,3.64,2.93,4.68,5l-7.8,2.35c-.5-.8-1.14-1.42-1.92-1.88-.78-.45-1.66-.67-2.62-.67-1.1,0-2.09,.28-2.98,.85-.88,.57-1.58,1.35-2.1,2.34-.52,.99-.77,2.15-.77,3.48s.26,2.51,.77,3.53c.52,1.02,1.23,1.81,2.12,2.36,.9,.55,1.88,.83,2.95,.83,.7,0,1.34-.11,1.92-.33,.58-.22,1.12-.52,1.6-.92,.48-.4,.86-.83,1.12-1.3l7.75,2.35c-.67,1.37-1.58,2.56-2.75,3.58-1.17,1.02-2.55,1.83-4.15,2.45-1.6,.62-3.42,.92-5.45,.92Z"/><path class="cls-1" d="M367.21,9.94c-1.93,0-3.68,.31-5.25,.92-1.57,.62-2.7,1.52-3.4,2.73v15.75h-8V3.39h7.3v5c.93-1.77,2.12-3.15,3.55-4.15,1.43-1,2.93-1.52,4.5-1.55h.8c.17,0,.33,.02,.5,.05v7.2Z"/><path class="cls-1" d="M382.9,29.84c-2.23,0-4.22-.35-5.95-1.06-1.73-.71-3.21-1.67-4.43-2.89-1.22-1.22-2.14-2.63-2.77-4.23-.63-1.6-.95-3.27-.95-5.02,0-2.5,.56-4.77,1.67-6.82,1.12-2.05,2.73-3.7,4.83-4.95,2.1-1.25,4.63-1.87,7.6-1.87s5.5,.62,7.6,1.85,3.69,2.87,4.77,4.91c1.08,2.04,1.62,4.23,1.62,6.57,0,.46-.02,.91-.07,1.36-.05,.44-.09,.83-.12,1.16h-19.4c.07,1.13,.38,2.09,.95,2.87,.57,.78,1.28,1.36,2.15,1.75,.87,.39,1.77,.58,2.7,.58,1.23,0,2.38-.28,3.42-.85,1.05-.57,1.76-1.32,2.12-2.25l6.8,1.95c-.67,1.37-1.6,2.56-2.8,3.58-1.2,1.02-2.62,1.83-4.27,2.45-1.65,.62-3.48,.92-5.48,.92Zm-5.75-15.9h11.35c-.1-1.06-.42-1.98-.95-2.77-.53-.79-1.2-1.4-2-1.83-.8-.43-1.73-.65-2.8-.65-.97,0-1.87,.22-2.7,.65-.83,.43-1.5,1.04-2,1.81-.5,.77-.8,1.7-.9,2.79Z"/><path class="cls-1" d="M413.1,29.84c-2.23,0-4.22-.36-5.95-1.09-1.73-.72-3.21-1.71-4.43-2.96s-2.14-2.68-2.77-4.29c-.63-1.61-.95-3.32-.95-5.13,0-2.4,.56-4.61,1.67-6.64,1.12-2.02,2.73-3.65,4.83-4.89,2.1-1.23,4.62-1.85,7.55-1.85s5.59,.63,7.67,1.9c2.08,1.27,3.64,2.93,4.68,5l-7.8,2.35c-.5-.8-1.14-1.42-1.92-1.88-.78-.45-1.66-.67-2.62-.67-1.1,0-2.09,.28-2.98,.85-.88,.57-1.58,1.35-2.1,2.34-.52,.99-.77,2.15-.77,3.48s.26,2.51,.77,3.53c.52,1.02,1.23,1.81,2.12,2.36,.9,.55,1.88,.83,2.95,.83,.7,0,1.34-.11,1.92-.33,.58-.22,1.12-.52,1.6-.92,.48-.4,.86-.83,1.12-1.3l7.75,2.35c-.67,1.37-1.58,2.56-2.75,3.58-1.17,1.02-2.55,1.83-4.15,2.45-1.6,.62-3.42,.92-5.45,.92Z"/><path class="cls-1" d="M441.35,29.84c-2.23,0-4.22-.35-5.95-1.06-1.73-.71-3.21-1.67-4.43-2.89-1.22-1.22-2.14-2.63-2.77-4.23-.63-1.6-.95-3.27-.95-5.02,0-2.5,.56-4.77,1.67-6.82,1.12-2.05,2.73-3.7,4.83-4.95,2.1-1.25,4.63-1.87,7.6-1.87s5.5,.62,7.6,1.85,3.69,2.87,4.77,4.91c1.08,2.04,1.62,4.23,1.62,6.57,0,.46-.02,.91-.07,1.36-.05,.44-.09,.83-.12,1.16h-19.4c.07,1.13,.38,2.09,.95,2.87,.57,.78,1.28,1.36,2.15,1.75,.87,.39,1.77,.58,2.7,.58,1.23,0,2.38-.28,3.42-.85,1.05-.57,1.76-1.32,2.12-2.25l6.8,1.95c-.67,1.37-1.6,2.56-2.8,3.58-1.2,1.02-2.62,1.83-4.27,2.45-1.65,.62-3.48,.92-5.48,.92Zm-5.75-15.9h11.35c-.1-1.06-.42-1.98-.95-2.77-.53-.79-1.2-1.4-2-1.83-.8-.43-1.73-.65-2.8-.65-.97,0-1.87,.22-2.7,.65-.83,.43-1.5,1.04-2,1.81-.5,.77-.8,1.7-.9,2.79Z"/><path class="cls-1" d="M475.65,9.94c-1.93,0-3.68,.31-5.25,.92-1.57,.62-2.7,1.52-3.4,2.73v15.75h-8V3.39h7.3v5c.93-1.77,2.12-3.15,3.55-4.15,1.43-1,2.93-1.52,4.5-1.55h.8c.17,0,.33,.02,.5,.05v7.2Z"/></g><path class="cls-2" d="M2.75,37.53L20.14,20.14c.63-.63,.63-1.65,0-2.28L2.75,.48C1.74-.54,0,.18,0,1.62V36.39c0,1.44,1.74,2.16,2.75,1.14Z"/></g></svg>